# xmcd CD database file
#
# Track frame offsets:
#	150
#	22042
#	38267
#	51387
#	62692
#	78390
#	95317
#	114955
#	130732
#	148137
#
# Disc length: 2226 seconds
#
# Revision: 2
# Processed by: cddbd v1.4PL0 Copyright (c) Steve Scherf et al.
# Submitted via: CDex 1.50
#
DISCID=7d08b00a
DTITLE=Wille Nelson - City of New Orleans
DYEAR=1984
DGENRE=Country
TTITLE0=City of New Orleans
TTITLE1=Just Out of Reach
TTITLE2=Good Time Charlie's Got The Blues
TTITLE3=Why Are You Picking On Me
TTITLE4=She's Out Of My Life
TTITLE5=Cry
TTITLE6=Please Come To Boston
TTITLE7=It Turns Me Inside Out
TTITLE8=Wind Beneath My Wings
TTITLE9=Until It's Time For You To Go
EXTD=YEAR: 1984
EXTT0=
EXTT1=
EXTT2=
EXTT3=
EXTT4=
EXTT5=
EXTT6=
EXTT7=
EXTT8=
EXTT9=
PLAYORDER=
